<svg xmlns="http://www.w3.org/2000/svg" viewBox="0 0 1919.95 1027.11"><g id="Layer_2" data-name="Layer 2"><g id="Layer_1-2" data-name="Layer 1"><path d="M1920,0V134.13c-14.32-10.47-211.82,33.76-230.41,40.58-89.22,32.75-177.66,90.5-270.22,176.56-20.83,19.36-42.28,40.6-63.78,63.13-47,49.22-92.34,102-136.21,153.07-68.9,80.19-140.15,163.11-219.16,234C885.05,904.82,763.64,973.7,639.42,1006.27a626.85,626.85,0,0,1-159,20.84,558.16,558.16,0,0,1-171.07-26.33c-86.23-27.74-195.53-68-275.78-133.87l-1.18-1C19.29,855.26-.45,839.06,0,819.43,1.89,738.18,3.46,533.67.18,20.82.1,12.08,0,5.07,0,0Z"/></g></g></svg>