<svg xmlns="http://www.w3.org/2000/svg" width="1541.57" height="1033.806" viewBox="0 0 1541.57 1033.806">
  <g id="Layer_2" data-name="Layer 2" transform="translate(0 0.001)">
    <g id="Layer_1" data-name="Layer 1" transform="translate(0 -0.001)">
      <path id="Path_41" data-name="Path 41" d="M1540.917,369.781V1033.3H.5V39.249c.207-6.972,75.674-15.072,83.361-16.695A1031.243,1031.243,0,0,1,229.171,2.526C410.6-9.478,585.586,32.3,748.506,121.556,906.4,208.109,1060.664,316.11,1236.988,350.906c51.022,10.141,102.781,15.1,154.587,16.4C1404.9,367.69,1540.917,369.667,1540.917,369.781Z" transform="translate(0.076 0.001)" fill="#2b1c40"/>
      <path id="Path_42" data-name="Path 42" d="M1541.57,1033.8H0V39.375c.15-4.968,26.854-9.53,69.889-15.3,7.1-.95,12.228-1.635,13.945-2A1035,1035,0,0,1,229.212,2.028C408.163-9.821,583.034,30.263,748.835,121.153c33.976,18.629,68.4,38.589,101.675,57.89,122.1,70.829,248.355,144.053,386.657,171.35,48.141,9.5,100.119,15.017,154.437,16.386,6.915.177,47.979.811,84.134,1.381l45.317.7,14.429.241c5.97.1,5.97.1,5.97.748ZM1.153,1032.537H1540.417V370.429c-4.276-.1-33.63-.558-64.541-1.026-36.212-.57-77.219-1.2-84.134-1.381-54.445-1.369-106.481-6.894-154.679-16.411-138.578-27.323-264.917-100.6-387.084-171.464-33.285-19.3-67.687-39.286-101.663-57.877C582.654,31.492,407.99-8.541,229.281,3.3A1032.873,1032.873,0,0,0,84.065,23.306c-1.764.38-6.915,1.065-14.026,2.015-11.675,1.571-29.308,3.941-43.611,6.527C3.054,36.08,1.153,38.691,1.153,39.4Z" transform="translate(0 0.001)" fill="#2b1c40"/>
    </g>
  </g>
</svg>
