<?xml version="1.0" encoding="utf-8"?>
<!-- Generator: Adobe Illustrator 26.0.1, SVG Export Plug-In . SVG Version: 6.00 Build 0)  -->
<svg version="1.1" xmlns="http://www.w3.org/2000/svg" xmlns:xlink="http://www.w3.org/1999/xlink" x="0px" y="0px"
	 viewBox="0 0 1925 952" style="enable-background:new 0 0 1925 952;" xml:space="preserve">
<style type="text/css">
	.st0{fill:#EDBFB7;}
</style>
<g id="Layer_1">
	<g id="Layer_1_00000075146618997815131240000009790489040036051616_">
		<path class="st0" d="M1700.3,42.6c-89.7,33-178.7,91.3-271.8,178.1c-20.9,19.5-42.5,41-64.1,63.7c-47.2,49.6-92.9,102.9-137,154.4
			c-69.3,80.9-140.9,164.6-220.4,236.1C891.2,779.2,767.1,848.7,642.1,881.5c-52.2,13.8-105.9,20.9-159.9,21
			c-58.4,0.2-116.4-8.8-172-26.6c-86.7-28-196.6-68.6-277.4-135.1l-1.2-1C20.3,730.7,4.1,717.3,0,701.1V952h1956V0.2
			C1921.7-3.4,1717.8,36.1,1700.3,42.6z"/>
	</g>
</g>
<g id="Layer_2">
</g>
</svg>
